<?xml version="1.0" encoding="UTF-8" standalone="no"?>
<!-- Created with Inkscape (http://www.inkscape.org/) -->

<svg
   width="361.84375"
   height="31.1875"
   id="loadingsvg">
  
  <g
     inkscape:label="Calque 1"
     inkscape:groupmode="layer"
     id="layer1"
     transform="translate(-59.0625,-339.6875)">
    <g
       style="font-size:40px;font-style:normal;font-variant:normal;font-weight:normal;font-stretch:normal;text-align:start;line-height:125%;letter-spacing:20px;word-spacing:0px;writing-mode:lr-tb;text-anchor:start;fill:none;stroke:#000000;stroke-opacity:1;font-family:Century Gothic;-inkscape-font-specification:Century Gothic"
       id="text2985">
      <path
         d="m 59.576118,340.91837 2.890625,0 0,25.95703 11.035157,0 0,2.77343 -13.925782,0 0,-28.73046"
         id="path2990"
         class = "loadingpath"
         inkscape:connector-curvature="0" />
      <path
         d="m 121.78315,340.19571 c 4.34894,3e-5 7.98826,1.45185 10.91797,4.35547 2.92965,2.90367 4.3945,6.47788 4.39453,10.72265 -3e-5,4.20574 -1.46488,7.77345 -4.39453,10.70313 -2.91669,2.92969 -6.47789,4.39453 -10.6836,4.39453 -4.25782,0 -7.85157,-1.45833 -10.78125,-4.375 -2.92969,-2.91666 -4.39453,-6.4453 -4.39453,-10.58594 0,-2.7604 0.66406,-5.31899 1.99219,-7.67578 1.34114,-2.35674 3.16406,-4.19919 5.46875,-5.52734 2.30468,-1.34112 4.79816,-2.01169 7.48047,-2.01172 m 0.13672,2.8125 c -2.12241,3e-5 -4.13413,0.55341 -6.03516,1.66016 -1.90105,1.10679 -3.38542,2.59767 -4.45312,4.47265 -1.06772,1.87502 -1.60157,3.96486 -1.60157,6.26953 0,3.41147 1.17838,6.29558 3.53516,8.65235 2.36978,2.34375 5.22134,3.51562 8.55469,3.51562 2.22654,0 4.28383,-0.54036 6.17187,-1.62109 1.90102,-1.08073 3.37888,-2.55859 4.4336,-4.4336 1.06768,-1.87499 1.60153,-3.95832 1.60156,-6.25 -3e-5,-2.27862 -0.53388,-4.33591 -1.60156,-6.17187 -1.05472,-1.84894 -2.5456,-3.3268 -4.47266,-4.43359 -1.9271,-1.10675 -3.97137,-1.66013 -6.13281,-1.66016"
         id="path2992"
         class = "loadingpath"
         inkscape:connector-curvature="0" />
      <path
         d="m 184.59565,340.91837 13.39844,28.73046 -3.08594,0 -4.51172,-9.45312 -12.38281,0 -4.49219,9.45312 -3.20312,0 13.57421,-28.73046 0.70313,0 m -0.35156,6.09375 -4.94141,10.41015 9.82422,0 -4.88281,-10.41015"
         id="path2994"
         class = "loadingpath"
         inkscape:connector-curvature="0" />
      <path
         d="m 232.46674,369.64883 0,-28.73046 5.95703,0 c 4.29687,2e-5 7.41535,0.34508 9.35547,1.03515 2.78644,0.97659 4.96092,2.6693 6.52344,5.07813 1.57549,2.40887 2.36325,5.27996 2.36328,8.61328 -3e-5,2.87761 -0.62502,5.41016 -1.875,7.59765 -1.237,2.18751 -2.85158,3.80209 -4.84375,4.84375 -1.97918,1.04167 -4.75913,1.5625 -8.33984,1.5625 l -9.14063,0 m 2.75391,-2.71484 3.32031,0 c 3.97134,0 6.72525,-0.24739 8.26172,-0.74219 2.16144,-0.70312 3.86066,-1.96614 5.09766,-3.78906 1.23695,-1.83593 1.85544,-4.07551 1.85547,-6.71875 -3e-5,-2.77342 -0.6706,-5.14321 -2.01172,-7.10937 -1.34117,-1.96613 -3.20966,-3.31378 -5.60547,-4.04297 -1.79689,-0.54685 -4.75913,-0.82029 -8.88672,-0.82032 l -2.03125,0 0,23.22266"
         id="path2996"
         class = "loadingpath"
         inkscape:connector-curvature="0" />
      <path
         d="m 291.82221,340.91837 2.8711,0 0,28.73046 -2.8711,0 0,-28.73046"
         id="path2998"
         class = "loadingpath"
         inkscape:connector-curvature="0" />
      <path
         d="m 331.39252,369.64883 0,-28.73046 0.625,0 19.10157,21.99218 0,-21.99218 2.83203,0 0,28.73046 -0.64453,0 -18.94532,-21.71875 0,21.71875 -2.96875,0"
         id="path3000"
         class = "loadingpath"
         inkscape:connector-curvature="0" />
      <path
         d="m 418.69721,345.74258 -2.22656,2.10938 c -1.60159,-1.5755 -3.3594,-2.7669 -5.27344,-3.57422 -1.90106,-0.82029 -3.75653,-1.23044 -5.5664,-1.23047 -2.25262,3e-5 -4.40106,0.55341 -6.44532,1.66016 -2.03126,1.10679 -3.60678,2.6107 -4.72656,4.51172 -1.1198,1.88804 -1.67969,3.88673 -1.67969,5.99609 0,2.16147 0.57942,4.21876 1.73828,6.17188 1.15885,1.94011 2.76041,3.47005 4.80469,4.58984 2.04426,1.10677 4.28384,1.66016 6.71875,1.66016 2.95571,0 5.45571,-0.83334 7.5,-2.5 2.04424,-1.66667 3.25518,-3.82812 3.63281,-6.48438 l -9.16015,0 0,-2.77344 12.38281,0 c -0.0261,4.44012 -1.34769,7.96876 -3.96484,10.58594 -2.6042,2.60417 -6.09378,3.90625 -10.46875,3.90625 -5.31252,0 -9.51824,-1.80989 -12.61719,-5.42969 -2.38282,-2.78645 -3.57422,-6.0091 -3.57422,-9.66797 0,-2.72133 0.68359,-5.25388 2.05078,-7.59765 1.36718,-2.34373 3.24218,-4.17315 5.625,-5.48828 2.3828,-1.3281 5.07811,-1.99216 8.08594,-1.99219 2.43488,3e-5 4.72654,0.44274 6.875,1.32812 2.14841,0.87243 4.24476,2.27868 6.28906,4.21875"
         id="path3002"
         class = "loadingpath"
         inkscape:connector-curvature="0" />
    </g>
  </g>
</svg>
